<?xml version="1.0" encoding="utf-8"?>
<!-- Generator: Adobe Illustrator 26.0.1, SVG Export Plug-In . SVG Version: 6.00 Build 0)  -->
<svg version="1.1" xmlns="http://www.w3.org/2000/svg" xmlns:xlink="http://www.w3.org/1999/xlink" x="0px" y="0px"
	 viewBox="0 0 3045 411" style="enable-background:new 0 0 3045 411;" xml:space="preserve">
<style type="text/css">
	.st0{fill:#EF4123;}
	.st1{display:none;fill:url(#SVGID_1_);}
	.st2{fill:url(#SVGID_00000003068417449866655240000012928887818645157543_);}
	.st3{fill:none;}
	.st4{font-family:'UnicaOne-Regular';}
	.st5{font-size:482px;}
	.st6{letter-spacing:-4;}
	.st7{fill:#00ADEF;}
</style>
<g id="Layer_4">
	<path class="st0" d="M2902,206c9.5,35.3,25,86,32,102c7,15,14.8,24.6,31,30c15,5,28,5,45,6c31,1,35,6,35,34c0,21,0,33-26,33
		c-66-1-97-5-127-34c-20.8-19.5-29.6-46.3-36.2-73c-3.1-12.6-6.5-25-9.8-37.5c-1-4.5-2-5.5-4.6-0.6c-25.8,43.8-51.9,87.3-77,131.5
		c-6,10.5-12.7,14.1-24.4,13.6c-17.9-0.7-35.9-0.4-55.6-0.3c-6.5,0-10.6-7-7.4-12.7c37.4-64.7,73.3-127,110.9-192"/>
	<linearGradient id="SVGID_1_" gradientUnits="userSpaceOnUse" x1="2694.4692" y1="152.7313" x2="2968.8057" y2="152.7313">
		<stop  offset="0" style="stop-color:#00ADEF"/>
		<stop  offset="0.1913" style="stop-color:#48BBA0"/>
		<stop  offset="0.3833" style="stop-color:#8BC956"/>
		<stop  offset="0.4724" style="stop-color:#A6CE39"/>
		<stop  offset="1" style="stop-color:#EF4123"/>
	</linearGradient>
	<path class="st1" d="M2796,192.4h-104.5c-8.5,0-15.4-6.9-15.4-15.4v-49c0-7.8,6.3-14.1,14.1-14.1h111.5l75.7-0.8
		c31.8,0,63,0,95.7,0c6.7,0,12.1,5.4,12.1,12.1v52.5c0,7.7-6.3,14-14,14h-72"/>
	<path class="st0" d="M2800,103c-4.8-19.8-20-30.6-39.7-32.7c-21.6-2.3-29.7-1.3-50.6-1.3c-35.1,0-33.3-9-33.7-33.8
		C2675.7,10,2676,0,2709.7,0c26.3,0,35.3-1,60.9,0.7C2821.8,4.2,2876,43,2882,103"/>
	
		<linearGradient id="SVGID_00000030485583120844818590000004539434811500108931_" gradientUnits="userSpaceOnUse" x1="2706.0991" y1="154.6748" x2="2980.5732" y2="154.6748">
		<stop  offset="0" style="stop-color:#7B3AFF"/>
		<stop  offset="0.1741" style="stop-color:#00ADEF"/>
		<stop  offset="0.2813" style="stop-color:#48BBA0"/>
		<stop  offset="0.389" style="stop-color:#8BC956"/>
		<stop  offset="0.4389" style="stop-color:#A6CE39"/>
		<stop  offset="0.6635" style="stop-color:#FFCB05"/>
		<stop  offset="0.8514" style="stop-color:#EF4123"/>
		<stop  offset="0.8885" style="stop-color:#DB3D19"/>
		<stop  offset="0.9882" style="stop-color:#AA3400"/>
	</linearGradient>
	<path style="fill:url(#SVGID_00000030485583120844818590000004539434811500108931_);" d="M2807.7,192.7h-104.6
		c-8.5,0-15.4-6.6-15.4-14.7v-47c0-7.5,6.3-13.5,14.1-13.5h111.5l75.7-0.7c31.8,0,63,0,95.8,0c6.7,0,12.1,5.2,12.1,11.6v50.3
		c0,7.4-6.3,13.4-14,13.4H2911"/>
</g>
<g id="Layer_7">
	<rect x="-43" y="88" class="st3" width="1484" height="322"/>
	<text transform="matrix(1 0 0 1.25 -43 401.2969)" class="st0 st4 st5 st6">PHOTON</text>
	<rect x="1390" y="88" class="st3" width="1232" height="322"/>
	<text transform="matrix(1 0 0 1.25 1390 401.2969)" class="st7 st4 st5 st6">RANCH</text>
</g>
</svg>
